<svg width="35" height="33" viewBox="0 0 35 33" fill="none" xmlns="http://www.w3.org/2000/svg">
<path d="M6.26936 31.4844C6.09873 32.4556 7.05686 33.2147 7.90123 32.7816L17.5044 27.8466L27.1053 32.7816C27.9497 33.2147 28.9078 32.4556 28.7372 31.4866L26.9215 21.1397L34.6259 13.7984C35.3478 13.1116 34.9759 11.8559 34.009 11.7203L23.2947 10.1978L18.5172 0.7325C18.4262 0.540631 18.2826 0.378525 18.1031 0.265014C17.9236 0.151503 17.7156 0.0912476 17.5033 0.0912476C17.2909 0.0912476 17.0829 0.151503 16.9034 0.265014C16.724 0.378525 16.5804 0.540631 16.4894 0.7325L11.7119 10.2L0.997484 11.7225C0.0327966 11.8581 -0.341266 13.1137 0.378422 13.8006L8.08498 21.1419L6.26936 31.4887V31.4844ZM16.999 25.4316L8.93592 29.5747L10.454 20.9188C10.4896 20.7195 10.4757 20.5146 10.4135 20.3219C10.3514 20.1293 10.2428 19.9549 10.0975 19.8141L3.74061 13.7547L12.6044 12.4947C12.7879 12.467 12.962 12.3952 13.1117 12.2855C13.2614 12.1757 13.3823 12.0314 13.464 11.8647L17.5 3.86281L21.5403 11.8647C21.622 12.0314 21.7429 12.1757 21.8926 12.2855C22.0424 12.3952 22.2164 12.467 22.4 12.4947L31.2637 13.7525L24.9069 19.8119C24.7612 19.953 24.6524 20.1277 24.5903 20.3208C24.5281 20.5138 24.5144 20.7192 24.5503 20.9188L26.0684 29.5747L18.0053 25.4316C17.8494 25.3512 17.6765 25.3092 17.5011 25.3092C17.3257 25.3092 17.155 25.3512 16.999 25.4316Z" fill="#D9D9D9"/>
</svg>
