<svg width="35" height="33" viewBox="0 0 35 33" fill="none" xmlns="http://www.w3.org/2000/svg">
<path d="M11.7119 10.1978L16.4894 0.7325C16.5811 0.542086 16.7245 0.38126 16.9032 0.268334C17.0819 0.155407 17.2886 0.0949166 17.5 0.09375C17.9003 0.09375 18.3006 0.305937 18.5172 0.7325L23.2947 10.1978L34.0091 11.7203C34.2761 11.7623 34.5205 11.8951 34.7011 12.0964C34.8816 12.2976 34.9872 12.555 35 12.825C35.0153 13.0048 34.9898 13.1857 34.9254 13.3542C34.861 13.5228 34.7594 13.6746 34.6281 13.7984L26.9216 21.1397L28.7372 31.4866C28.9078 32.4556 27.9497 33.2147 27.1053 32.7816L17.5 27.8466L7.89907 32.7816C7.79864 32.8337 7.691 32.8706 7.57969 32.8909C6.83157 33.0222 6.11844 32.3353 6.26719 31.4866L8.08282 21.1397L0.378441 13.7984C0.258665 13.6851 0.163461 13.5484 0.0987365 13.3967C0.0340124 13.2451 0.00115044 13.0818 0.00219069 12.9169C0.00230447 12.6838 0.0666374 12.4552 0.188128 12.2562C0.274313 12.112 0.391782 11.989 0.531867 11.8962C0.671953 11.8035 0.831079 11.7434 0.997503 11.7203L11.7119 10.1978ZM17.5 25.3091C17.6766 25.3083 17.8507 25.3504 18.0075 25.4316L26.0706 29.5747L24.5525 20.9188C24.5167 20.7197 24.5302 20.5148 24.592 20.3222C24.6538 20.1296 24.7619 19.9551 24.9069 19.8141L31.2659 13.7547L22.4022 12.4947C22.2186 12.467 22.0446 12.3952 21.8948 12.2855C21.7451 12.1757 21.6242 12.0314 21.5425 11.8647L17.5022 3.86281L17.5 3.86938V25.3069V25.3091Z" fill="#F7DF1E"/>
</svg>
