<svg width="105" height="94" viewBox="0 0 105 94" fill="none" xmlns="http://www.w3.org/2000/svg">
<path d="M9.52434 83.1538L0 0H104.768L95.2434 83.1538L52.2677 92.5538" fill="#E34F26"/>
<path d="M52.5 85.3231L87.1128 77.9115L95.2434 6.68846H52.5" fill="#EF652A"/>
<path d="M52.5 37.6H35.0774L33.9159 27.1154H52.5V16.9923H19.5133L22.9978 47.9038H52.5V37.6ZM52.5 64.1731L37.6327 61.1L36.7035 52.9654H23.6947L25.3208 69.0538L52.5 74.8385V64.1731Z" fill="#ECEDEE"/>
<path d="M52.5 47.9038H68.5288L66.9027 61.1L52.5 64.1731V74.8385L79.2146 69.0538L82.9314 37.6H52.5V47.9038ZM52.5 16.9923V27.1154H84.0929L85.2544 16.9923H52.5Z" fill="white"/>
</svg>
