<svg width="105" height="94" viewBox="0 0 105 94" fill="none" xmlns="http://www.w3.org/2000/svg">
<g clip-path="url(#clip0_10_65)">
<path d="M105 0H0V94H105V0Z" fill="#F7DF1E"/>
<path d="M70.5333 73.4379C72.6483 76.5294 75.4 78.8019 80.2667 78.8019C84.355 78.8019 86.9667 76.9726 86.9667 74.445C86.9667 71.4161 84.2833 70.3433 79.7833 68.5812L77.3167 67.6338C70.1967 64.9182 65.4667 61.5163 65.4667 54.3245C65.4667 47.6998 71.105 42.6566 79.9167 42.6566C86.19 42.6566 90.7 44.6112 93.95 49.729L86.2667 54.1455C84.575 51.4299 82.75 50.3601 79.9167 50.3601C77.0267 50.3601 75.195 52.0014 75.195 54.1455C75.195 56.7954 77.0283 57.8682 81.2617 59.5095L83.7283 60.4554C92.1117 63.6738 96.845 66.9549 96.845 74.3316C96.845 82.2843 89.8667 86.6412 80.495 86.6412C71.3317 86.6412 65.4117 82.7319 62.515 77.6082L70.5333 73.4379ZM35.6783 74.2033C37.2283 76.6652 38.6383 78.7466 42.0283 78.7466C45.27 78.7466 47.315 77.6112 47.315 73.1962V43.1609H57.1817V73.3155C57.1817 82.4619 51.1917 86.6247 42.4483 86.6247C34.5483 86.6247 29.9733 82.9647 27.6467 78.5564L35.6783 74.2033Z" fill="black"/>
</g>
<defs>
<clipPath id="clip0_10_65">
<rect width="105" height="94" fill="white"/>
</clipPath>
</defs>
</svg>
