<svg width="86" height="79" viewBox="0 0 86 79" fill="none" xmlns="http://www.w3.org/2000/svg">
<path d="M28.6917 7.85063C23.5725 9.14664 18.4881 10.5559 13.4429 12.0771C12.9822 12.2142 12.5727 12.4674 12.261 12.8078C11.9493 13.1483 11.7479 13.5623 11.6799 14.0027C8.70212 34.5279 15.5821 49.5034 23.7897 59.3685C27.2648 63.5871 31.4083 67.3035 36.0824 70.3939C37.9421 71.5987 39.5869 72.4677 40.8822 73.0256C41.5272 73.3071 42.054 73.4947 42.4571 73.6083C42.6334 73.6651 42.8152 73.7064 43 73.7317C43.1826 73.7044 43.3624 73.6631 43.5375 73.6083C43.946 73.4947 44.4727 73.3071 45.1177 73.0256C46.4077 72.4677 48.0579 71.5938 49.9176 70.3939C54.5916 67.3034 58.7352 63.587 62.2103 59.3685C70.4179 49.5083 77.2979 34.5279 74.3201 14.0027C74.2527 13.5621 74.0516 13.1478 73.7398 12.8073C73.428 12.4667 73.0181 12.2137 72.5571 12.0771C69.058 11.0254 63.1509 9.31213 57.3083 7.85556C51.342 6.36937 45.8541 5.26831 43 5.26831C40.1512 5.26831 34.658 6.36444 28.6917 7.85063ZM27.262 2.765C33.0939 1.30844 39.2912 0 43 0C46.7087 0 52.9061 1.30844 58.738 2.765C64.7043 4.24625 70.7189 5.99906 74.2556 7.06062C75.7343 7.5092 77.0453 8.33186 78.0379 9.43409C79.0305 10.5363 79.6646 11.8734 79.8671 13.2917C83.0706 35.3969 75.637 51.7796 66.6178 62.6174C62.7931 67.2536 58.2327 71.3363 53.0889 74.7291C51.3102 75.9031 49.4257 76.9355 47.4559 77.815C45.9509 78.4668 44.333 79 43 79C41.667 79 40.0545 78.4668 38.5441 77.815C36.5743 76.9355 34.6897 75.9031 32.9111 74.7291C27.7674 71.3362 23.207 67.2535 19.3822 62.6174C10.363 51.7796 2.92937 35.3969 6.13287 13.2917C6.33544 11.8734 6.96946 10.5363 7.96208 9.43409C8.9547 8.33186 10.2657 7.5092 11.7444 7.06062C16.8785 5.51425 22.0526 4.08195 27.262 2.765Z" fill="#60A3BE"/>
<path d="M51.0625 32.0938C51.0634 33.626 50.5469 35.1208 49.5842 36.3721C48.6216 37.6234 47.2601 38.5696 45.6875 39.0803L47.7569 48.906C47.8322 49.2633 47.8205 49.6316 47.7227 49.9843C47.6249 50.3371 47.4434 50.6656 47.1912 50.9463C46.939 51.2271 46.6223 51.4531 46.2638 51.6083C45.9054 51.7634 45.514 51.8439 45.1178 51.8438H40.8823C40.4864 51.8431 40.0957 51.7622 39.7379 51.6067C39.3801 51.4512 39.0641 51.2251 38.8125 50.9444C38.5609 50.6638 38.3798 50.3355 38.2824 49.9831C38.1849 49.6307 38.1733 49.2629 38.2485 48.906L40.3125 39.0803C38.9191 38.6278 37.6879 37.8321 36.7535 36.7803C35.819 35.7284 35.2173 34.4609 35.0141 33.1161C34.8109 31.7714 35.0139 30.4012 35.6011 29.1553C36.1882 27.9094 37.1369 26.8357 38.3434 26.0516C39.5499 25.2675 40.9678 24.8031 42.4422 24.7092C43.9166 24.6152 45.3907 24.8954 46.7035 25.519C48.0163 26.1427 49.1172 27.0858 49.886 28.2453C50.6547 29.4048 51.0617 30.7361 51.0625 32.0938Z" fill="#60A3BE"/>
</svg>
